<?xml version="1.0" standalone="no"?>
<!DOCTYPE svg PUBLIC "-//W3C//DTD SVG 20010904//EN"
 "http://www.w3.org/TR/2001/REC-SVG-20010904/DTD/svg10.dtd">
<svg version="1.0" xmlns="http://www.w3.org/2000/svg"
 width="784.000000pt" height="784.000000pt" viewBox="0 0 784.000000 784.000000"
 preserveAspectRatio="xMidYMid meet">
<metadata>
Created by potrace 1.14, written by Peter Selinger 2001-2017
</metadata>
<g transform="translate(0.000000,784.000000) scale(0.100000,-0.100000)"
fill="#000000" stroke="none">
<path d="M2498 7275 c-2 -2 -54 -6 -117 -9 -62 -3 -116 -8 -120 -10 -3 -2 -45
-6 -92 -10 -47 -4 -97 -9 -110 -11 -25 -5 -54 -10 -129 -20 -25 -3 -51 -8 -59
-11 -8 -3 -30 -7 -50 -10 -93 -14 -292 -66 -389 -101 -23 -8 -48 -16 -55 -17
-6 -2 -25 -8 -42 -15 -16 -6 -50 -19 -75 -28 -63 -22 -374 -174 -378 -184 -2
-5 -10 -9 -18 -9 -8 0 -14 -4 -14 -10 0 -5 -5 -10 -10 -10 -11 0 -84 -49 -174
-118 -103 -79 -324 -309 -350 -363 -5 -10 -13 -19 -18 -19 -4 0 -8 -5 -8 -12
0 -6 -9 -21 -19 -32 -10 -12 -31 -46 -47 -76 -15 -30 -31 -57 -34 -60 -8 -6
-71 -152 -99 -230 -20 -55 -49 -162 -57 -210 -3 -14 -6 -30 -9 -37 -26 -75
-26 -570 1 -614 2 -3 6 -24 9 -45 2 -21 12 -64 20 -94 9 -30 18 -62 20 -70 29
-111 123 -296 209 -410 80 -106 203 -231 301 -308 81 -64 389 -238 460 -261
11 -4 31 -12 80 -31 42 -17 188 -71 200 -74 6 -2 17 -6 25 -9 14 -6 175 -54
210 -62 8 -2 30 -8 48 -14 17 -5 32 -8 32 -5 0 3 9 0 20 -6 10 -6 32 -12 47
-14 15 -3 39 -7 53 -11 36 -9 335 -62 394 -70 27 -3 52 -8 55 -10 3 -1 31 -6
61 -10 30 -3 62 -8 70 -10 8 -3 32 -7 54 -9 21 -3 46 -7 55 -10 9 -3 39 -8 66
-11 28 -4 61 -9 75 -12 14 -2 36 -5 50 -8 45 -6 104 -16 130 -20 14 -3 42 -8
64 -11 21 -3 48 -8 60 -10 43 -9 73 -14 107 -18 19 -3 46 -7 59 -10 14 -3 43
-8 65 -11 22 -3 65 -10 95 -15 30 -5 69 -11 85 -14 82 -13 102 -16 125 -21 13
-2 41 -7 61 -10 36 -5 95 -18 217 -45 30 -7 59 -13 65 -14 7 -1 39 -10 72 -20
483 -146 677 -283 765 -539 16 -46 23 -74 37 -152 11 -56 9 -284 -2 -322 -7
-23 -11 -44 -9 -46 7 -7 -33 -122 -62 -178 -73 -145 -190 -249 -369 -330 -66
-30 -115 -48 -145 -53 -3 -1 -9 -4 -15 -7 -14 -9 -27 -6 -120 26 -106 37 -247
103 -314 149 -29 20 -55 36 -58 36 -12 0 -162 159 -192 203 -28 41 -60 105
-100 202 -5 11 -14 38 -20 60 -5 22 -13 51 -17 65 -4 14 -8 34 -10 45 -1 11
-5 40 -9 65 -11 62 -13 106 -14 242 l-1 117 -527 -2 -528 -2 1 -90 c1 -101 11
-267 19 -305 3 -14 8 -41 11 -60 16 -109 70 -316 102 -388 8 -21 17 -45 19
-55 2 -10 10 -29 19 -42 9 -14 13 -25 9 -25 -5 0 0 -9 10 -20 10 -11 15 -20
12 -20 -7 0 75 -148 122 -220 20 -30 40 -61 44 -68 9 -13 -46 -12 -178 4 -16
2 -46 6 -65 8 -19 2 -64 9 -100 16 -36 6 -74 13 -85 15 -346 61 -659 222 -804
415 -14 19 -29 37 -32 40 -4 3 -25 40 -47 82 -43 82 -74 165 -86 228 -2 8 -6
26 -10 40 -6 25 -13 73 -22 145 -2 22 -5 99 -6 172 l-2 132 -529 0 -529 0 6
-157 c8 -199 28 -347 65 -482 12 -41 24 -88 28 -105 3 -16 12 -41 20 -55 7
-14 13 -29 13 -35 0 -57 211 -444 284 -521 6 -6 27 -31 46 -55 81 -100 205
-214 340 -313 41 -31 80 -60 87 -66 7 -5 15 -10 17 -10 3 0 31 -16 63 -36 115
-75 486 -244 532 -244 6 0 19 -4 29 -10 16 -9 200 -63 252 -74 14 -3 77 -16
141 -30 64 -13 138 -27 165 -31 27 -3 58 -8 69 -10 25 -6 106 -16 160 -21 22
-2 58 -5 80 -8 117 -15 291 -21 560 -21 315 1 451 7 645 30 19 2 55 6 80 9 47
6 110 15 145 22 11 3 36 7 55 9 19 3 55 9 80 15 39 10 70 8 145 -6 35 -7 80
-15 163 -29 31 -5 107 -14 172 -21 25 -3 61 -6 80 -9 240 -27 864 -27 1110 0
19 2 62 6 95 10 33 4 76 9 95 12 19 2 46 6 60 8 47 6 105 16 130 21 14 3 34 8
45 10 173 31 409 101 575 172 424 180 748 441 941 757 67 111 159 306 173 370
2 6 10 35 20 66 24 79 32 118 51 239 12 83 13 415 1 470 -3 13 -8 40 -11 60
-3 20 -8 47 -11 60 -3 14 -9 41 -14 60 -25 112 -128 368 -152 378 -5 2 -8 9
-8 15 0 6 -19 38 -42 72 -90 130 -193 241 -318 340 -41 33 -76 63 -78 68 -2 4
-8 7 -14 7 -5 0 -24 11 -42 25 -18 14 -37 25 -41 25 -5 0 -16 6 -24 14 -29 25
-264 142 -371 184 -137 53 -280 100 -390 128 -193 49 -277 68 -395 89 -16 2
-41 7 -55 10 -14 3 -41 8 -60 11 -19 2 -48 8 -65 11 -16 3 -40 7 -52 9 -12 1
-34 5 -50 8 -15 4 -41 8 -58 10 -26 4 -92 15 -185 32 -14 2 -41 7 -60 10 -19
2 -48 8 -65 11 -33 7 -64 12 -110 18 -16 2 -32 5 -35 6 -3 1 -9 2 -15 3 -10 2
-83 15 -120 22 -18 4 -85 14 -125 19 -8 1 -31 5 -50 9 -19 3 -46 8 -60 10 -14
3 -25 5 -25 6 0 1 -13 3 -30 5 -16 2 -43 6 -60 9 -47 9 -98 18 -120 21 -11 2
-47 8 -80 14 -33 6 -76 13 -95 16 -133 18 -492 123 -660 192 -292 120 -458
318 -489 583 -8 71 -7 242 1 300 14 95 69 234 116 292 47 59 107 119 145 144
23 16 44 32 47 36 9 11 163 85 226 108 l62 22 68 -25 c350 -127 561 -338 652
-652 12 -38 24 -90 27 -115 4 -24 8 -47 10 -50 11 -17 23 -290 13 -296 -3 -2
-3 -16 1 -32 l7 -27 520 0 519 0 -1 135 c-2 120 -8 216 -20 275 -3 11 -7 38
-9 60 -15 110 -88 367 -136 473 -63 139 -97 205 -146 280 l-54 84 88 -6 c48
-4 99 -8 113 -11 14 -2 50 -6 80 -10 30 -3 77 -11 105 -16 27 -5 65 -12 84
-15 18 -3 79 -19 135 -35 125 -36 114 -33 174 -56 9 -3 19 -7 22 -7 3 -1 41
-19 85 -40 80 -40 197 -114 226 -145 8 -9 29 -27 45 -41 106 -89 233 -333 260
-500 3 -14 7 -38 11 -55 3 -16 7 -57 9 -90 2 -33 4 -62 5 -65 1 -3 3 -48 4
-100 1 -52 3 -100 4 -107 1 -9 121 -12 521 -13 l520 0 1 48 c1 73 -2 178 -6
210 -2 16 -7 58 -11 93 -11 108 -12 113 -17 135 -3 12 -8 37 -11 55 -3 19 -10
49 -15 67 -5 18 -10 36 -11 40 -7 47 -72 245 -103 312 -73 160 -138 275 -224
395 -47 66 -74 96 -183 205 -118 118 -165 160 -179 160 -5 0 -11 3 -13 8 -5
12 -116 92 -128 92 -5 0 -10 3 -10 8 0 4 -25 20 -55 37 -30 16 -55 33 -55 37
0 4 -9 8 -20 8 -11 0 -20 5 -20 10 0 6 -9 10 -19 10 -11 0 -21 4 -23 8 -13 33
-474 211 -610 236 -13 2 -41 9 -63 14 -22 6 -53 13 -70 16 -16 3 -43 8 -60 11
-53 10 -139 24 -180 30 -22 3 -60 7 -85 11 -306 40 -970 40 -1275 -1 -22 -2
-62 -7 -90 -10 -27 -3 -61 -8 -75 -10 -14 -3 -43 -7 -65 -10 -33 -5 -66 -11
-105 -20 -14 -3 -96 -19 -105 -20 -5 -1 -17 2 -25 6 -8 4 -33 9 -55 12 -22 3
-47 8 -55 11 -16 5 -73 14 -125 20 -16 2 -48 7 -70 10 -22 4 -60 9 -85 11 -25
3 -67 7 -95 11 -27 3 -72 8 -100 10 -55 6 -732 14 -737 9z m-88 -970 c0 -3
-17 -31 -37 -62 -21 -32 -37 -61 -36 -65 1 -3 -4 -12 -12 -18 -8 -7 -15 -16
-15 -20 0 -5 -15 -41 -34 -82 -58 -123 -120 -323 -131 -418 -2 -14 -6 -52 -11
-85 -9 -73 -10 -311 0 -380 4 -27 9 -74 11 -103 3 -30 7 -57 9 -61 3 -4 8 -23
11 -42 19 -111 112 -349 177 -448 l21 -33 -29 6 c-16 3 -46 9 -68 12 -49 7
-57 9 -137 28 -37 8 -80 18 -95 21 -39 8 -59 13 -59 15 0 1 -7 3 -15 5 -101
26 -289 85 -335 105 -21 9 -58 22 -62 21 -11 -2 -179 90 -219 120 -100 73
-161 145 -209 244 -65 133 -91 324 -70 500 9 79 54 212 96 281 39 64 126 155
184 192 22 14 42 28 45 32 5 7 177 91 194 95 6 1 20 5 31 9 58 22 72 27 90 31
11 2 44 11 74 19 30 8 58 13 63 10 4 -3 8 -1 8 3 0 5 8 9 18 9 16 1 55 8 115
20 15 3 44 7 65 9 20 2 53 6 73 9 19 3 68 8 109 11 41 3 75 7 76 8 4 4 104 5
104 2z m3140 -2949 c14 -4 39 -8 55 -10 58 -8 143 -25 186 -36 24 -7 53 -14
64 -16 41 -7 183 -48 260 -74 245 -85 375 -157 480 -265 61 -63 135 -186 135
-224 0 -11 4 -22 9 -25 10 -7 18 -43 36 -171 10 -64 9 -169 0 -243 -4 -31 -9
-66 -10 -77 -5 -39 -55 -167 -85 -221 -64 -110 -182 -215 -315 -279 -33 -16
-64 -30 -70 -32 -5 -1 -55 -18 -110 -37 -55 -18 -116 -36 -135 -39 -19 -3 -46
-8 -60 -12 -14 -3 -41 -8 -60 -11 -19 -2 -42 -6 -50 -9 -8 -2 -40 -6 -70 -10
-30 -3 -65 -7 -78 -10 -13 -2 -60 -7 -105 -10 -45 -3 -106 -7 -134 -10 -29 -2
-53 -1 -53 2 0 7 54 107 61 113 9 8 69 136 69 148 0 6 3 12 8 14 7 3 40 87 47
121 2 9 7 22 10 27 9 15 35 117 50 198 3 15 7 36 9 47 25 117 26 434 1 549 -2
11 -7 37 -9 57 -3 20 -8 44 -12 54 -4 10 -8 27 -9 39 -1 12 -5 28 -8 36 -3 8
-15 47 -28 85 -29 93 -122 286 -159 330 -11 13 -8 15 22 11 18 -3 45 -7 58
-10z"/>
</g>
</svg>
