<svg width="141" height="140" viewBox="0 0 141 140" fill="none" xmlns="http://www.w3.org/2000/svg">
<g clip-path="url(#clip0_25_310)">
<path d="M53.1408 138.485L55.662 130.105C56.4415 127.515 56.3715 126.774 54.644 126.26C52.9181 125.746 52.4488 126.328 51.6694 128.919L49.1481 137.298L45.7313 136.284L48.2526 127.904C49.6078 123.401 52.2102 123.279 55.2675 124.187C58.3248 125.095 60.4325 126.616 59.0788 131.119L56.5576 139.498L53.1408 138.484V138.485Z" fill="#232C33"/>
<path d="M38.3537 124.627L38.4985 116.667L41.796 118.527L41.6353 122.511L44.9948 120.332L48.2923 122.192L41.4874 126.396L41.314 134.404L37.9513 132.508L38.1692 128.577L34.8828 130.777L31.5201 128.881L38.3537 124.629V124.627Z" fill="#232C33"/>
<path d="M18.0437 105.972C22.2082 102.607 25.5773 103.827 27.3063 105.94L30.5736 109.934L19.6074 118.793L16.399 114.871C14.6826 112.772 13.6741 109.501 18.0437 105.973V105.972ZM20.2818 108.706C17.2961 111.118 17.0416 112.55 18.1535 113.91L18.8868 114.808L26.7798 108.432L25.9749 107.448C24.8742 106.103 23.0624 106.46 20.2803 108.707L20.2818 108.706Z" fill="#232C33"/>
<path d="M17.6111 98.3062C18.8264 97.5949 18.8423 96.5028 18.4716 95.7695C18.0008 94.8354 17.452 93.9203 16.4865 93.2122L17.584 91.9336C18.8693 92.3572 19.8365 93.6484 20.4775 94.9144C21.7405 97.4148 22.065 100.091 18.1058 102.066C14.1641 104.032 12.163 102.109 11.102 100.01C9.93122 97.6929 9.80078 95.2748 13.3401 93.5093C13.7425 93.3086 14.8417 92.8234 14.8417 92.8234L17.6127 98.3062H17.6111ZM15.8486 99.226L14.5522 96.6593C12.8485 97.4464 12.6163 98.1892 13.0458 99.0395C13.4419 99.8234 14.18 99.9546 15.8502 99.226H15.8486Z" fill="#232C33"/>
<path d="M10.7377 90.9931C8.12897 91.6965 6.8071 89.3478 6.3792 87.7816C5.77951 85.5863 6.32035 84.2223 6.32035 84.2223L8.31508 84.6885C8.31508 84.6885 8.06693 85.7032 8.33258 86.6736C8.61254 87.6994 9.00226 88.0582 9.43811 87.9412C10.6884 87.6046 8.23872 82.4095 11.8973 81.4232C14.6683 80.6757 16.1365 82.9848 16.8094 85.4503C17.3454 87.4117 16.8619 89.1282 16.8619 89.1282L14.8433 88.6477C14.8433 88.6477 15.1853 87.7626 14.7431 86.1426C14.3693 84.7755 13.9589 84.2665 13.2701 84.453C12.1296 84.7612 14.5251 89.9706 10.7393 90.9916L10.7377 90.9931Z" fill="#232C33"/>
<path d="M2.97989 76.062L3.38233 79.5644L0.902445 79.8458L0.5 76.3434L2.97989 76.062ZM14.5601 74.7471L14.9626 78.2495L4.81714 79.4016L4.41469 75.8993L14.5585 74.7471H14.5601Z" fill="#232C33"/>
<path d="M4.54832 61.1172L15.2521 61.6783C19.8253 61.9185 20.4266 65.1238 20.2898 67.7126C20.1816 69.742 19.1652 71.558 19.1652 71.558L17.3979 70.4943C17.3979 70.4943 18.0437 68.9596 18.109 67.73C18.1678 66.6126 18.0835 65.375 15.066 65.217L14.1847 65.1712C14.4583 65.6706 14.7558 66.4529 14.6969 67.5704C14.5442 70.439 12.8088 72.3277 8.81614 72.119C5.08597 71.923 3.88659 69.7135 4.03771 66.8639C4.09338 65.8018 4.47356 65.0384 4.79965 64.55L4.37175 64.471L4.54991 61.1188L4.54832 61.1172ZM12.1216 65.0621L6.59236 64.7729C6.44283 65.1206 6.28058 65.6911 6.23127 66.6221C6.16605 67.8517 6.82778 68.4839 9.00226 68.5977C11.4201 68.7241 12.4747 68.3306 12.54 67.1215C12.6147 65.7054 12.2282 65.1996 12.1232 65.0637L12.1216 65.0621Z" fill="#232C33"/>
<path d="M12.0166 47.2606L18.1249 49.0308L17.1323 52.4147L10.9508 50.624C9.83418 50.3 9.16768 50.3015 8.88931 51.2498C8.56958 52.342 8.6348 53.118 8.68729 53.4056L16.2017 55.5835L15.2028 58.9848L5.40092 56.1446L6.34739 52.922L7.03457 53.0437C6.85959 52.372 6.64803 51.1645 6.98844 49.9997C7.67084 47.6716 8.97044 46.3772 12.0166 47.2606Z" fill="#232C33"/>
<path d="M26.1579 19.8136C24.1806 17.3006 25.7395 15.2855 27.6468 13.803C28.5184 13.1249 29.9183 12.5117 31.0795 12.5322L31.229 14.3577C31.229 14.3577 30.1298 14.5964 29.169 15.3424C28.2528 16.0552 28.0937 16.9118 28.4978 17.427C29.9771 19.3078 34.5663 15.0563 37.5727 18.8748C39.7344 21.6217 37.9735 24.1979 35.9772 25.7499C34.9273 26.5655 33.3637 27.4253 32.0259 27.3289L31.9384 25.4323C31.9384 25.4323 33.1251 25.2442 34.3674 24.2785C35.6988 23.2449 35.9533 22.1464 35.2487 21.2503C33.8616 19.4864 29.0259 23.4566 26.1595 19.8136H26.1579Z" fill="#232C33"/>
<path d="M48.593 17.141C48.593 17.141 47.7547 18.4433 46.3756 19.1625C43.9498 20.43 42.332 20.5786 40.9783 18.0213L38.6718 13.6639L37.3929 14.3324L36.4671 12.5828L37.7461 11.9143L37.2132 10.9075L39.6199 7.88086L40.8861 10.2753L43.5441 8.88606L44.4699 10.6357L41.8119 12.0249L44.1613 16.4661C44.7467 17.5725 45.278 17.2943 45.6932 17.0778C46.2419 16.7917 47.0548 15.8829 47.0373 15.8908L48.5914 17.1442L48.593 17.141Z" fill="#232C33"/>
<path d="M56.9807 4.88616L56.4287 6.88233C56.4287 6.88233 55.5586 6.79224 54.337 7.15734C53.1328 7.51769 52.3932 8.05032 52.137 8.24314L54.3926 15.6904L50.9774 16.7114L48.0347 6.99613L51.2701 6.02886L51.5374 6.65C51.9732 6.14898 52.829 5.34767 54.0332 4.9889C55.6509 4.50526 56.9823 4.88616 56.9823 4.88616H56.9807Z" fill="#232C33"/>
<path d="M69.606 6.90912L70.2407 12.9008L66.9734 13.2422L66.8557 12.8423C66.3069 13.1805 65.3764 13.6721 64.4808 13.7653C62.5211 13.9708 60.5677 13.5361 60.2782 10.7908C60.0014 8.1751 61.7289 7.37694 63.6887 7.17148C64.7162 7.06401 65.5418 7.20309 66.0842 7.33427L66.0779 7.27895C65.9284 5.86915 65.4766 5.16583 64.2629 5.29385C63.0301 5.42187 61.7639 6.11729 61.7639 6.11729L60.7713 4.40245C60.7713 4.40245 62.1314 3.34194 64.185 3.12699C66.9846 2.8346 69.2227 3.29452 69.606 6.9107V6.90912ZM66.536 11.5985V11.5795L66.2258 8.66821C65.9952 8.6366 65.5418 8.62712 64.888 8.69508C64.1038 8.77727 63.6918 9.34466 63.8064 10.421C63.9336 11.6269 64.5683 12.0852 65.3334 12.0062C66.0047 11.9367 66.3801 11.7281 66.536 11.5985Z" fill="#232C33"/>
<path d="M80.5579 13.0922C80.5579 13.0922 79.1502 13.7481 77.5961 13.6248C74.8649 13.4083 73.4157 12.6765 73.648 9.79528L74.0409 4.88783L72.5997 4.77404L72.7572 2.80316L74.1984 2.91695L74.289 1.78374L77.9508 0.501953L77.7345 3.19828L80.7281 3.43536L80.5707 5.40624L77.577 5.16916L77.1761 10.1699C77.0759 11.4153 77.6756 11.4627 78.1433 11.5006C78.7605 11.5496 79.936 11.2114 79.9169 11.2114L80.5564 13.0954L80.5579 13.0922Z" fill="#232C33"/>
<path d="M86.4133 11.047C86.1349 12.4205 86.943 13.1617 87.7399 13.3767C88.7548 13.6501 89.8062 13.8572 90.9818 13.6153L91.2076 15.2796C90.0321 15.9482 88.4191 15.8012 87.0432 15.4297C84.3263 14.6964 82.1041 13.1491 83.2669 8.90071C84.4249 4.6713 87.2007 4.47532 89.4833 5.09171C92.0014 5.77133 93.9007 7.29019 92.8604 11.0865C92.7426 11.518 92.372 12.656 92.372 12.656L86.4133 11.0454V11.047ZM86.9 9.12988L89.6901 9.88378C90.2373 8.0994 89.8365 7.43085 88.9123 7.18113C88.0612 6.95038 87.4695 7.4103 86.9 9.12988Z" fill="#232C33"/>
<path d="M107.778 13.1141L102.77 22.5307C100.631 26.5547 97.4495 25.7502 95.143 24.538C93.3344 23.5881 92.1032 21.9096 92.1032 21.9096L93.8164 20.7637C93.8164 20.7637 94.9474 21.9902 96.0433 22.5655C97.0391 23.0886 98.2051 23.5312 99.616 20.8759L100.028 20.1015C99.4554 20.1394 98.6171 20.0778 97.6229 19.5562C95.0667 18.2144 94.0709 15.8563 95.9384 12.3428C97.6833 9.06172 100.206 8.90842 102.745 10.2424C103.691 10.7386 104.231 11.4024 104.538 11.9003L104.789 11.5478L107.776 13.1157L107.778 13.1141ZM100.994 18.2855L103.58 13.4207C103.326 13.1394 102.872 12.7538 102.043 12.3191C100.947 11.7438 100.092 12.0757 99.0752 13.9881C97.9442 16.1155 97.8599 17.2313 98.9384 17.7987C100.2 18.4609 100.825 18.325 100.994 18.2871V18.2855Z" fill="#232C33"/>
<path d="M119.477 22.4262L109.205 28.9568C106.004 31.0952 103.774 29.8118 101.507 27.8836L102.704 26.4959C103.944 27.5517 105.008 28.0638 107.212 26.5987L108.034 26.0455L107.207 25.3422L111.495 15.6348L114.219 17.9518L111.459 23.7064L116.741 20.0981L119.479 22.4262H119.477Z" fill="#232C33"/>
<path d="M139.477 47.8867L140.5 51.2816L126.976 55.3024L125.953 51.9075L139.477 47.8867Z" fill="#232C33"/>
<path d="M135.632 73.5966L129.284 74.0312L129.039 70.5146L135.462 70.0752C136.623 69.9962 137.253 69.8587 137.185 68.8725C137.115 67.8673 136.794 67.3109 136.588 67.0628C136.181 67.1655 135.717 67.254 135.193 67.2888L128.845 67.7234L128.6 64.2068L135.023 63.7675C136.184 63.6884 136.813 63.532 136.744 62.5473C136.681 61.6354 136.38 61.0948 136.234 60.8815L128.406 61.4173L128.161 57.8817L138.348 57.1831L138.58 60.5322L137.929 60.6507C138.321 61.147 138.892 62.0431 138.963 63.0657C139.065 64.5356 138.825 65.6735 137.915 66.4085C138.217 66.7056 139.294 67.8467 139.402 69.3909C139.569 71.809 138.795 73.3769 135.631 73.5934L135.632 73.5966Z" fill="#232C33"/>
<path d="M131.742 88.2035C127.83 87.3832 126.643 85.1136 127.242 82.3035C127.466 81.2446 127.938 80.5634 128.328 80.1682L122.47 78.9386L123.211 75.4536L138.71 78.7063L138.023 81.9352L137.416 81.9036C137.664 82.4505 137.926 83.383 137.667 84.6063C137.074 87.3974 135.395 88.9716 131.742 88.2035ZM132.475 84.7548C134.605 85.2021 135.354 85.0156 135.61 83.8113C135.855 82.6623 135.766 81.9953 135.674 81.7092L130.348 80.5918C130.153 80.7024 129.714 81.145 129.442 82.422C129.189 83.6074 130.106 84.2586 132.475 84.7548Z" fill="#232C33"/>
<path d="M127.463 99.9607L121.932 97.4919L123.278 94.5143L123.685 94.6138C123.666 93.9721 123.707 92.9274 124.076 92.1103C124.884 90.3244 126.243 88.8656 128.777 89.9972C131.191 91.0751 131.018 92.9606 130.21 94.7466C129.787 95.6822 129.251 96.3223 128.864 96.7222L128.915 96.7459C130.216 97.3275 131.054 97.2928 131.556 96.1864C132.063 95.0643 132.096 93.626 132.096 93.626L134.088 93.6355C134.088 93.6355 134.327 95.3377 133.48 97.209C132.325 99.7615 130.8 101.451 127.461 99.9607H127.463ZM124.927 94.9647L124.945 94.9726L127.633 96.1722C127.776 95.9904 128.013 95.6064 128.282 95.0105C128.605 94.2961 128.318 93.656 127.324 93.2135C126.211 92.7172 125.493 93.0302 125.178 93.7272C124.902 94.3404 124.894 94.7656 124.927 94.9647Z" fill="#232C33"/>
<path d="M124.358 108.524C125.048 107.571 124.782 106.599 122.862 105.225C120.958 103.863 119.85 103.99 119.247 104.821C118.644 105.654 118.025 106.635 117.841 107.814L116.193 107.44C115.986 106.096 116.657 104.693 117.48 103.558C119.135 101.273 121.34 99.7949 124.935 102.366C128.514 104.927 127.813 107.459 126.298 109.548C125.454 110.713 124.421 111.628 123.122 111.826L122.285 110.33C122.966 109.967 123.666 109.48 124.356 108.526L124.358 108.524Z" fill="#232C33"/>
<path d="M108.541 114.271C108.541 114.271 108.982 112.788 110.105 111.715C112.081 109.828 113.592 109.237 115.609 111.322L119.043 114.871L120.085 113.876L121.464 115.301L120.422 116.297L121.216 117.117L119.751 120.689L117.864 118.74L115.7 120.809L114.32 119.384L116.485 117.315L112.986 113.699C112.114 112.798 111.681 113.212 111.343 113.534C110.896 113.961 110.369 115.058 110.383 115.045L108.54 114.271H108.541Z" fill="#232C33"/>
<path d="M108.914 125.805L106.747 127.283L105.621 125.654L107.787 124.176L103.135 117.441L106.06 115.447L110.713 122.181L111.996 121.306L113.123 122.935L111.839 123.811L112.116 124.211C114.037 126.994 112.577 128.669 110.875 129.829C109.776 130.578 108.529 130.683 108.529 130.683L108.199 128.69C108.199 128.69 108.91 128.566 109.407 128.228C109.995 127.827 109.798 127.079 109.192 126.204L108.915 125.804L108.914 125.805Z" fill="#232C33"/>
<path d="M94.082 133.368L89.9574 124.087L93.0481 122.731L93.3821 123.299C93.7702 122.741 94.556 121.785 95.6886 121.287C97.9029 120.315 99.7528 120.462 101.035 123.344L103.628 129.18L100.383 130.604L97.7597 124.701C97.2888 123.643 96.861 123.139 95.9336 123.545C94.8869 124.005 94.3477 124.547 94.16 124.772L97.3445 131.936L94.082 133.368Z" fill="#232C33"/>
<path d="M90.5507 138.34L87.0893 139.192L83.6964 125.577L87.1593 124.726L90.5523 138.34H90.5507Z" fill="#232C33"/>
<path d="M19.803 38.181C21.3861 38.181 22.6695 36.9059 22.6695 35.3329C22.6695 33.76 21.3861 32.4849 19.803 32.4849C18.22 32.4849 16.9366 33.76 16.9366 35.3329C16.9366 36.9059 18.22 38.181 19.803 38.181Z" fill="#232C33"/>
<path d="M123.61 38.181C125.193 38.181 126.476 36.9059 126.476 35.3329C126.476 33.76 125.193 32.4849 123.61 32.4849C122.027 32.4849 120.744 33.76 120.744 35.3329C120.744 36.9059 122.027 38.181 123.61 38.181Z" fill="#232C33"/>
<path d="M72.1018 137.019C73.6849 137.019 74.9683 135.744 74.9683 134.171C74.9683 132.598 73.6849 131.323 72.1018 131.323C70.5187 131.323 69.2354 132.598 69.2354 134.171C69.2354 135.744 70.5187 137.019 72.1018 137.019Z" fill="#232C33"/>
</g>
<defs>
<clipPath id="clip0_25_310">
<rect width="140" height="139" fill="white" transform="translate(0.5 0.5)"/>
</clipPath>
</defs>
</svg>
