<svg width="141" height="140" viewBox="0 0 141 140" fill="none" xmlns="http://www.w3.org/2000/svg">
<g clip-path="url(#clip0_11_258)">
<path d="M60.3629 139.504L62.9625 131.119C63.7448 128.524 63.6759 127.824 61.9183 127.573C60.1607 127.323 59.6794 127.945 58.897 130.541L56.2975 138.926L52.8168 138.429L55.4163 130.045C56.7882 125.536 59.4552 125.057 62.5689 125.502C65.6827 125.945 67.815 127.108 66.4431 131.615L63.8436 140L60.3629 139.504Z" fill="#232C33"/>
<path d="M44.8912 127.924L44.9053 120.495L48.3891 121.848L48.2888 125.575L51.7695 123.16L55.2533 124.513L48.2041 129.212L48.1539 136.686L44.6012 135.307L44.7642 131.623L41.3588 134.049L37.806 132.669L44.8928 127.926L44.8912 127.924Z" fill="#232C33"/>
<path d="M25.9514 124.72L40.0136 117.386L42.7025 119.189L28.6559 126.534L25.9514 124.722V124.72Z" fill="#232C33"/>
<path d="M19.023 117.834L26.3088 112.926C28.5462 111.393 28.9334 110.804 27.7199 109.509C26.5064 108.212 25.7413 108.397 23.5039 109.93L16.218 114.838L13.8176 112.273L21.1035 107.367C25.0012 104.712 27.3797 106.009 29.5277 108.303C31.6757 110.597 32.6085 112.838 28.7108 115.493L21.4249 120.399L19.0245 117.834H19.023Z" fill="#232C33"/>
<path d="M11.0409 107.464L9.14381 104.507L22.0458 98.8599L23.9429 101.817L11.0409 107.464Z" fill="#232C33"/>
<path d="M7.27177 78.8803C12.6072 78.4104 15.166 81.1823 15.8198 83.8008L17.0537 88.7495L3.00403 89.9773L1.79364 85.1178C1.14611 82.5182 1.67448 79.3579 7.27491 78.8803H7.27177ZM8.11685 82.2692C4.28969 82.5934 3.41795 83.6097 3.83814 85.2948L4.11565 86.4067L14.23 85.5297L13.9258 84.3097C13.5103 82.6419 11.6806 81.9544 8.11685 82.2692Z" fill="#232C33"/>
<path d="M2.1323 70.8668L6.18367 71.3914L6.06452 67.4763L8.01494 67.7128L8.1341 71.6295L12.1855 72.1541L12.0224 66.7966L13.9917 67.0331L14.2598 75.9001L0.268106 74.1226L0 65.2556L1.98649 66.0653L2.1323 70.8684V70.8668Z" fill="#232C33"/>
<path d="M4.19404 61.6224C1.16022 60.5951 0.976776 57.9579 1.38129 55.6072C1.56629 54.5329 2.16365 53.2472 3.0056 52.6051L4.29125 54.0819C4.29125 54.0819 3.66097 54.9104 3.45714 56.0943C3.26273 57.2234 3.70487 58.0315 4.32418 58.2492C6.59602 59.015 7.12282 52.7868 11.7355 54.3481C15.0547 55.4616 15.4576 58.6814 15.0343 61.1401C14.8116 62.4337 14.2519 64.0435 13.2328 64.731L11.9487 63.1415C11.9487 63.1415 12.6731 62.3099 12.938 60.7799C13.2203 59.1402 12.6935 58.0565 11.6101 57.7011C9.48246 56.9791 8.59505 63.1086 4.19561 61.6209L4.19404 61.6224Z" fill="#232C33"/>
<path d="M4.12663 46.7528L5.26647 43.4312L17.7122 50.0196L16.5724 53.3412L4.12663 46.7528Z" fill="#232C33"/>
<path d="M17.7812 32.9591L22.7341 36.8366C22.8391 39.4973 22.3923 40.9819 21.4375 42.6936C19.9072 45.4373 18.0227 47.373 12.8377 43.3028C7.66845 39.242 8.57624 36.1726 10.1065 33.4273C11.2322 31.4087 12.8612 30.729 12.8612 30.729L13.78 32.425C13.78 32.425 12.7029 33.1799 11.8923 34.6332C11.2448 35.7952 10.9641 37.438 14.5404 40.2521C18.1324 43.0757 19.1311 42.4258 19.7787 41.2638C20.075 40.7314 20.2349 40.332 20.3274 39.3689C19.6564 38.8255 18.5353 37.9485 17.6307 37.2547L16.668 38.9821L15.108 37.7543L17.7812 32.9591Z" fill="#232C33"/>
<path d="M33.5493 27.0049L31.1332 29.556L26.8545 28.1842L23.3659 26.9736L27.9551 32.9121L25.5265 35.4757L16.9189 24.316L19.3224 21.779L27.2511 24.5384L22.5256 18.3948L24.9417 15.8437L33.5493 27.0034V27.0049Z" fill="#232C33"/>
<path d="M33.7515 12.353L35.4417 16.0677L38.7091 13.9018L39.5369 15.6824L36.2695 17.8483L37.9597 21.5629L42.4297 18.6L43.2669 20.3946L35.8681 25.2995L29.9996 12.4908L37.3984 7.58594L37.7574 9.69854L33.7499 12.3546L33.7515 12.353Z" fill="#232C33"/>
<path d="M47.6805 12.97L47.439 13.064L48.5396 18.0331L45.2503 19.3235L42.2023 5.56887L46.6268 3.83213C49.0539 2.8784 51.7961 2.31932 52.6694 6.30492C53.2213 8.76831 52.2947 10.4033 50.639 11.5496L54.4615 15.7075L51.1893 16.9916L47.6789 12.97H47.6805ZM46.9969 11.133L47.8921 10.7822C49.4412 10.1731 49.8143 9.35245 49.4161 7.58281C48.9818 5.56887 48.2684 5.27289 46.7194 5.88208L45.9103 6.19999L46.9969 11.1346V11.133Z" fill="#232C33"/>
<path d="M81.3551 0.529324L78.6757 8.88889C77.8682 11.476 77.9309 12.1776 79.6869 12.4454C81.4429 12.7132 81.9306 12.0962 82.7364 9.50748L85.4159 1.14791L88.8903 1.67724L86.2108 10.0368C84.795 14.5314 82.1234 14.9855 79.0143 14.511C75.9052 14.0381 73.7839 12.8541 75.1997 8.35956L77.8807 0L81.3551 0.529324Z" fill="#232C33"/>
<path d="M96.7124 12.2575L96.6262 19.6868L93.1565 18.3008L93.2944 14.5736L89.7903 16.9556L86.3206 15.5696L93.4152 10.9404L93.539 3.46722L97.0777 4.88137L96.8786 8.56314L100.308 6.17179L103.846 7.58593L96.714 12.259L96.7124 12.2575Z" fill="#232C33"/>
<path d="M115.624 15.6464L101.491 22.8439L98.8196 21.0164L112.937 13.8078L115.622 15.6464H115.624Z" fill="#232C33"/>
<path d="M122.482 22.5965L115.149 27.4325C112.898 28.9437 112.506 29.5278 113.705 30.8355C114.906 32.1431 115.673 31.9662 117.924 30.4549L125.257 25.619L127.632 28.2061L120.299 33.042C116.375 35.6589 114.011 34.3403 111.885 32.0257C109.759 29.7111 108.848 27.4606 112.772 24.8438L120.105 20.0078L122.48 22.5949L122.482 22.5965Z" fill="#232C33"/>
<path d="M130.365 33.042L132.234 36.016L119.279 41.5379L117.41 38.5639L130.365 33.0405V33.042Z" fill="#232C33"/>
<path d="M133.858 61.6647C128.518 62.0828 125.986 59.2859 125.359 56.6612L124.174 51.6999L138.236 50.6084L139.399 55.4788C140.022 58.0847 139.463 61.2387 133.858 61.6631V61.6647ZM133.046 58.268C136.877 57.9814 137.758 56.9744 137.355 55.2846L137.088 54.1696L126.966 54.9479L127.258 56.1695C127.657 57.8404 129.481 58.5467 133.046 58.2664V58.268Z" fill="#232C33"/>
<path d="M138.921 69.7189L134.876 69.1567L134.957 73.0734L133.009 72.8181L132.927 68.9014L128.882 68.3392L128.993 73.6967L127.027 73.4414L126.842 64.5729L140.817 66.4819L141.002 75.3504L139.023 74.5235L138.923 69.7189H138.921Z" fill="#232C33"/>
<path d="M136.771 78.9476C139.794 80.0047 139.953 82.6435 139.525 84.9894C139.329 86.0622 138.72 87.3416 137.871 87.9759L136.601 86.4866C136.601 86.4866 137.239 85.6644 137.455 84.482C137.66 83.3545 137.226 82.5433 136.608 82.3178C134.344 81.53 133.756 87.7535 129.159 86.1468C125.851 85.0004 125.48 81.7775 125.928 79.3235C126.163 78.0331 126.737 76.4279 127.764 75.7498L129.032 77.3518C129.032 77.3518 128.299 78.1771 128.021 79.704C127.723 81.3405 128.239 82.4289 129.319 82.7954C131.441 83.5377 132.386 77.4176 136.771 78.9476Z" fill="#232C33"/>
<path d="M136.693 93.8172L135.52 97.1263L123.14 90.4173L124.313 87.1083L136.693 93.8172Z" fill="#232C33"/>
<path d="M122.902 107.483L117.987 103.558C117.908 100.897 118.369 99.4159 119.341 97.7136C120.898 94.984 122.802 93.0671 127.946 97.1874C133.074 101.298 132.138 104.36 130.58 107.088C129.435 109.096 127.8 109.76 127.8 109.76L126.899 108.056C126.899 108.056 127.984 107.312 128.808 105.866C129.468 104.711 129.765 103.071 126.215 100.222C122.65 97.3644 121.646 98.0049 120.986 99.1606C120.684 99.6899 120.522 100.088 120.419 101.049C121.085 101.599 122.197 102.487 123.095 103.19L124.075 101.472L125.624 102.716L122.904 107.484L122.902 107.483Z" fill="#232C33"/>
<path d="M107.081 113.282L109.52 110.754L113.785 112.167L117.262 113.41L112.731 107.428L115.183 104.888L123.684 116.13L121.257 118.644L113.355 115.808L118.021 121.997L115.582 124.524L107.081 113.282Z" fill="#232C33"/>
<path d="M106.74 127.929L105.086 124.199L101.799 126.333L100.988 124.545L104.276 122.41L102.622 118.68L98.1235 121.601L97.3035 119.796L104.749 114.964L110.494 127.829L103.048 132.662L102.71 130.546L106.742 127.927L106.74 127.929Z" fill="#232C33"/>
<path d="M92.8147 127.18L93.0561 127.088L92.0041 122.109L95.3045 120.85L98.2176 134.633L93.7758 136.328C91.3393 137.258 88.5924 137.79 87.7583 133.797C87.2299 131.327 88.1738 129.702 89.8404 128.573L86.0587 124.379L89.3419 123.126L92.8131 127.182L92.8147 127.18ZM93.4795 129.024L92.5811 129.367C91.0258 129.96 90.6448 130.778 91.0258 132.55C91.4412 134.567 92.1499 134.871 93.7068 134.278L94.519 133.968L93.4795 129.024Z" fill="#232C33"/>
<path d="M63.8201 10.7697C65.3805 10.7697 66.6454 9.50625 66.6454 7.94769C66.6454 6.38913 65.3805 5.12567 63.8201 5.12567C62.2597 5.12567 60.9948 6.38913 60.9948 7.94769C60.9948 9.50625 62.2597 10.7697 63.8201 10.7697Z" fill="#7E7EE0"/>
<path d="M76.4508 136.154C78.0112 136.154 79.2761 134.89 79.2761 133.332C79.2761 131.773 78.0112 130.51 76.4508 130.51C74.8905 130.51 73.6255 131.773 73.6255 133.332C73.6255 134.89 74.8905 136.154 76.4508 136.154Z" fill="#7E7EE0"/>
</g>
<defs>
<clipPath id="clip0_11_258">
<rect width="141" height="140" fill="white"/>
</clipPath>
</defs>
</svg>
