<svg width="49" height="42" viewBox="0 0 49 42" fill="none" xmlns="http://www.w3.org/2000/svg">
<g clip-path="url(#clip0_11_212)">
<path d="M18.5363 42C14.4982 42 11.1033 41.4315 8.35054 40.2955C5.59778 39.1596 3.52781 37.547 2.14184 35.4563C0.754675 33.3669 0.0610928 30.902 0.0610928 28.0604V27.6957H6.6675V28.6695C6.6675 30.2929 7.03405 31.6421 7.76837 32.7173C8.50268 33.7924 9.72573 34.6041 11.4387 35.1524C13.1517 35.7007 15.5164 35.9736 18.5351 35.9736C21.1441 35.9736 23.2248 35.7817 24.7749 35.3955C26.3238 35.0105 27.4354 34.4015 28.1087 33.5695C28.7819 32.7387 29.1185 31.6934 29.1185 30.4347C29.1185 28.6492 28.5471 27.3512 27.4055 26.5395C26.2627 25.7278 24.4084 25.0782 21.8389 24.5919L11.8065 22.9482C9.52209 22.5024 7.48327 21.8433 5.68882 20.9696C3.89317 20.0971 2.49762 18.9207 1.49857 17.4391C0.499523 15.9587 0 14.1017 0 11.8692C0 10.4079 0.325828 8.96807 0.978682 7.54729C1.63034 6.12771 2.65095 4.84877 4.03692 3.71286C5.42288 2.57695 7.22692 1.67347 9.45141 1.0036C11.6735 0.334932 14.3963 0 17.6187 0C21.6149 0 24.8983 0.609076 27.4678 1.82604C30.0373 3.04299 31.9431 4.69739 33.1878 6.78684C34.4312 8.87749 35.0541 11.2613 35.0541 13.9384V14.3031H28.5088V13.5117C28.5088 11.8478 28.1422 10.4592 27.4079 9.34234C26.6736 8.22669 25.4709 7.39473 23.7986 6.84644C22.1264 6.29815 19.8623 6.0252 17.0077 6.0252C14.5197 6.0252 12.512 6.22902 10.9823 6.63428C9.45261 7.04072 8.34096 7.63907 7.64858 8.42932C6.95499 9.22076 6.6088 10.2458 6.6088 11.5033C6.6088 12.6404 6.85317 13.5725 7.34311 14.3031C7.83305 15.0338 8.58653 15.6119 9.60714 16.0374C10.6265 16.4641 11.9323 16.8586 13.5219 17.2246L23.4932 18.929C26.2244 19.4153 28.4992 20.146 30.314 21.1198C32.1276 22.0936 33.4848 23.332 34.3821 24.8326C35.2781 26.3345 35.7285 28.0795 35.7285 30.0676C35.7285 32.0557 35.1367 34.0856 33.9544 35.9116C32.7709 37.7377 30.9153 39.2085 28.3878 40.3242C25.859 41.4398 22.5768 41.9976 18.5387 41.9976L18.5363 42Z" fill="#7E7EE0"/>
<path d="M31.809 42C27.7709 42 24.376 41.4315 21.6232 40.2955C18.8705 39.1596 16.8005 37.547 15.4145 35.4563C14.0274 33.3669 13.335 30.902 13.335 28.0604V27.6957H19.9414V28.6695C19.9414 30.2929 20.308 31.6421 21.0423 32.7173C21.7766 33.7924 22.9996 34.6041 24.7126 35.1524C26.4256 35.7007 28.7903 35.9736 31.809 35.9736C34.418 35.9736 36.4987 35.7817 38.0488 35.3955C39.5977 35.0105 40.7094 34.4015 41.3826 33.5695C42.0558 32.7387 42.3924 31.6934 42.3924 30.4347C42.3924 28.6492 41.821 27.3512 40.6794 26.5395C39.5366 25.7278 37.6823 25.0782 35.1128 24.5919L25.0804 22.9482C22.796 22.5024 20.7572 21.8433 18.9627 20.9696C17.1671 20.0971 15.7715 18.9207 14.7725 17.4391C13.7722 15.9587 13.2739 14.1017 13.2739 11.8692C13.2739 10.4079 13.5997 8.96807 14.2526 7.54729C14.9042 6.12771 15.9248 4.84877 17.3108 3.71286C18.6968 2.57695 20.5008 1.67347 22.7253 1.0036C24.9474 0.334932 27.6702 0 30.8914 0C34.8876 0 38.171 0.609076 40.7405 1.82604C43.31 3.04299 45.2158 4.69739 46.4605 6.78684C47.7039 8.87749 48.3268 11.2613 48.3268 13.9384V14.3031H41.7815V13.5117C41.7815 11.8478 41.4149 10.4592 40.6806 9.34234C39.9463 8.22669 38.7436 7.39473 37.0713 6.84644C35.3991 6.29815 33.135 6.0252 30.2805 6.0252C27.7924 6.0252 25.7847 6.22902 24.255 6.63428C22.7253 7.04072 21.6137 7.63907 20.9213 8.42932C20.2277 9.22076 19.8815 10.2458 19.8815 11.5033C19.8815 12.6404 20.1259 13.5725 20.6158 14.3031C21.1058 15.0338 21.8592 15.6119 22.8798 16.0374C23.8993 16.4641 25.205 16.8586 26.7946 17.2246L36.7659 18.929C39.4971 19.4153 41.7719 20.146 43.5867 21.1198C45.4003 22.0936 46.7575 23.332 47.6548 24.8326C48.5508 26.3345 49.0012 28.0795 49.0012 30.0676C49.0012 32.0557 48.4094 34.0856 47.2271 35.9116C46.0436 37.7377 44.188 39.2085 41.6605 40.3242C39.1317 41.4398 35.8495 41.9976 31.8114 41.9976L31.809 42Z" fill="#7E7EE0"/>
</g>
<defs>
<clipPath id="clip0_11_212">
<rect width="49" height="42" fill="white"/>
</clipPath>
</defs>
</svg>
